<svg id="Vermelho" xmlns="http://www.w3.org/2000/svg" xmlns:xlink="http://www.w3.org/1999/xlink" viewBox="0 0 342 341"><defs><style>.cls-1{fill:none;}.cls-2{clip-path:url(#clip-path);}.cls-3{fill:#ff0;}.cls-4{fill:url(#radial-gradient);}.cls-5{fill:url(#radial-gradient-2);}.cls-6{fill:#fff;}.cls-7{fill:#efbb45;}.cls-8{fill:url(#radial-gradient-3);}</style><clipPath id="clip-path"><circle class="cls-1" cx="171" cy="170.5" r="170.5"/></clipPath><radialGradient id="radial-gradient" cx="-723.39" cy="109.1" r="168.47" gradientTransform="translate(-409.76 117.8) rotate(180) scale(0.8 0.7)" gradientUnits="userSpaceOnUse"><stop offset="0" stop-color="#ffff86"/><stop offset="1" stop-color="#ffff1c"/></radialGradient><radialGradient id="radial-gradient-2" cx="178.66" cy="292.46" r="206.33" gradientTransform="translate(-0.4 87.74) scale(0.97 0.7)" gradientUnits="userSpaceOnUse"><stop offset="0" stop-color="#fda500"/><stop offset="1" stop-color="#ffff1c"/></radialGradient><radialGradient id="radial-gradient-3" cx="169.95" cy="321.77" r="104.46" gradientTransform="translate(0 96.53) scale(1 0.7)" gradientUnits="userSpaceOnUse"><stop offset="0" stop-color="#efbb45"/><stop offset="1" stop-color="#f9d984"/></radialGradient></defs><g class="cls-2"><ellipse class="cls-3" cx="171.5" cy="170.5" rx="170" ry="170.5"/><ellipse class="cls-4" cx="171.35" cy="86.27" rx="132.15" ry="79.16"/><ellipse class="cls-5" cx="171.5" cy="237.56" rx="195" ry="96.94"/><path class="cls-6" d="M320.29,88c-8.61,17-12.8,39.58-10.54,63.84,2.46,26.51,12.11,49.63,25.44,64.85A171.46,171.46,0,0,0,320.29,88Z"/><ellipse class="cls-7" cx="171.5" cy="277" rx="133.14" ry="64"/><ellipse class="cls-8" cx="171.21" cy="284.48" rx="133.14" ry="64"/><circle class="cls-6" cx="171" cy="91.5" r="78.5"/><ellipse cx="211.87" cy="268" rx="11.37" ry="27"/><ellipse class="cls-6" cx="211.87" cy="255.21" rx="7.11" ry="11.37"/><ellipse cx="128.35" cy="266.4" rx="11.37" ry="27"/><ellipse class="cls-6" cx="128.35" cy="253.61" rx="7.11" ry="11.37"/><circle class="cls-1" cx="170.5" cy="171" r="170.5"/><path class="cls-6" d="M5,205.23c15-12.62,27-33.44,31.52-58.33,4.67-25.37.71-49.5-9.26-66.71A170,170,0,0,0,1.5,170.5,172,172,0,0,0,5,205.23Z"/></g></svg>