<svg xmlns="http://www.w3.org/2000/svg" xmlns:xlink="http://www.w3.org/1999/xlink" viewBox="0 0 350 350"><defs><style>.cls-1,.cls-2{fill:#9b9b9b;}.cls-1,.cls-5{stroke:#ff0;stroke-miterlimit:10;stroke-width:8px;}.cls-3{clip-path:url(#clip-path);}.cls-4{fill:#ff0;}.cls-5{fill:none;}</style><clipPath id="clip-path"><circle class="cls-1" cx="175" cy="175" r="170.5"/></clipPath></defs><g id="Amarelo"><circle class="cls-2" cx="175" cy="175" r="170.5"/><g class="cls-3"><ellipse class="cls-2" cx="175.5" cy="281.5" rx="127.98" ry="60"/><path class="cls-4" d="M175.5,225.5a161.77,161.77,0,0,1,122.73,56,162.49,162.49,0,0,1-245.46,0,161.77,161.77,0,0,1,122.73-56m0-8a170.18,170.18,0,0,0-133.14,64,170.49,170.49,0,0,0,266.28,0,170.18,170.18,0,0,0-133.14-64Z"/><ellipse class="cls-1" cx="174.75" cy="96" rx="78.75" ry="78.5"/><path class="cls-4" d="M215.87,245.5c-6.28,0-11.37,12.09-11.37,27s5.09,27,11.37,27,11.37-12.09,11.37-27S222.15,245.5,215.87,245.5Zm0,25.58c-3.93,0-7.11-5.09-7.11-11.37s3.18-11.37,7.11-11.37,7.1,5.09,7.1,11.37S219.79,271.08,215.87,271.08Z"/><path class="cls-4" d="M132.35,243.9c-6.27,0-11.36,12.09-11.36,27s5.09,27,11.36,27,11.37-12.09,11.37-27S138.63,243.9,132.35,243.9Zm0,25.58c-3.92,0-7.1-5.09-7.1-11.37s3.18-11.37,7.1-11.37,7.11,5.09,7.11,11.37S136.28,269.48,132.35,269.48Z"/><path class="cls-1" d="M9.53,210.17c15.27-12.58,27.4-33.6,32-58.77,4.67-25.41.7-49.58-9.31-66.8"/><path class="cls-1" d="M320.22,90.69c-9.24,17.2-13.81,40.51-11.47,65.63,2.55,27.5,12.84,51.34,26.94,66.52"/></g><circle class="cls-5" cx="175" cy="175" r="170.5"/></g></svg>